<!-- Simple SVG placeholder for leaves texture -->
<svg width="16" height="16" xmlns="http://www.w3.org/2000/svg">
  <rect width="16" height="16" fill="#228B22"/>
  <rect x="1" y="1" width="2" height="2" fill="#32CD32"/>
  <rect x="5" y="2" width="2" height="2" fill="#32CD32"/>
  <rect x="9" y="1" width="2" height="2" fill="#32CD32"/>
  <rect x="13" y="3" width="2" height="2" fill="#32CD32"/>
  <rect x="2" y="5" width="2" height="2" fill="#32CD32"/>
  <rect x="7" y="6" width="2" height="2" fill="#32CD32"/>
  <rect x="11" y="5" width="2" height="2" fill="#32CD32"/>
  <rect x="0" y="8" width="2" height="2" fill="#32CD32"/>
  <rect x="4" y="9" width="2" height="2" fill="#32CD32"/>
  <rect x="8" y="8" width="2" height="2" fill="#32CD32"/>
  <rect x="12" y="10" width="2" height="2" fill="#32CD32"/>
  <rect x="1" y="12" width="2" height="2" fill="#32CD32"/>
  <rect x="6" y="13" width="2" height="2" fill="#32CD32"/>
  <rect x="10" y="12" width="2" height="2" fill="#32CD32"/>
  <rect x="14" y="14" width="2" height="2" fill="#32CD32"/>
</svg>
